<svg xmlns="http://www.w3.org/2000/svg" width="43.635" height="45.544" viewBox="0 0 43.635 45.544"><defs><style>.a{fill:#043b5c;}</style></defs><g transform="translate(0 0)"><path class="a" d="M32.554,20.787l.227,0H32.8q.637.011,1.264.081V5.374A5.38,5.38,0,0,0,28.69,0H5.374A5.38,5.38,0,0,0,0,5.374V36.283a5.38,5.38,0,0,0,5.374,5.374H20.941a13.672,13.672,0,0,1,11.613-20.87ZM19.272,8.774h7.963a1.334,1.334,0,0,1,0,2.669H19.272a1.334,1.334,0,0,1,0-2.669Zm0,5.338h7.963a1.334,1.334,0,0,1,0,2.669H19.272a1.334,1.334,0,0,1,0-2.669Zm-4.481,18.77H6.828a1.334,1.334,0,0,1,0-2.669h7.963a1.334,1.334,0,0,1,0,2.669Zm0-5.427H6.828a1.334,1.334,0,1,1,0-2.669h7.963a1.334,1.334,0,0,1,0,2.669Zm0-5.338H6.828a1.334,1.334,0,1,1,0-2.669h7.963a1.334,1.334,0,0,1,0,2.669Zm0-5.338H6.828a1.334,1.334,0,1,1,0-2.669h7.963a1.334,1.334,0,1,1,0,2.669Zm0-5.338H6.828a1.334,1.334,0,1,1,0-2.669h7.963a1.334,1.334,0,0,1,0,2.669Zm3.147,9.341a1.334,1.334,0,0,1,1.334-1.334h3.835a1.334,1.334,0,0,1,0,2.669H19.272a1.334,1.334,0,0,1-1.334-1.334Zm0,0"/><path class="a" d="M260.369,265.994a11.01,11.01,0,0,0-7.7-3.312h-.019l-.18,0a11.086,11.086,0,1,0,7.9,3.315Zm-3.167,5.972-4.232,5.275a1.334,1.334,0,0,1-1.824.246l-3.156-2.287a1.334,1.334,0,0,1,1.566-2.161l2.128,1.541,3.437-4.284a1.334,1.334,0,0,1,2.081,1.67Zm0,0" transform="translate(-219.915 -239.313)"/></g></svg>