<svg xmlns="http://www.w3.org/2000/svg" width="22.586" height="27.809" viewBox="0 0 22.586 27.809"><defs><style>.a{fill:rgba(20,97,162,0.45);}</style></defs><path class="a" d="M1.846,8.277V24.323A3.593,3.593,0,0,0,2.8,26.8a3.207,3.207,0,0,0,2.327,1.006H17.45A3.206,3.206,0,0,0,19.777,26.8a3.593,3.593,0,0,0,.955-2.478V8.277a2.488,2.488,0,0,0-.638-4.892H16.76V2.571A2.558,2.558,0,0,0,14.181,0H8.4A2.558,2.558,0,0,0,5.819,2.571v.814H2.485a2.488,2.488,0,0,0-.638,4.892ZM17.451,26.5H5.129a2.063,2.063,0,0,1-1.98-2.182V8.335H19.43V24.323a2.063,2.063,0,0,1-1.98,2.182ZM7.122,2.571A1.255,1.255,0,0,1,8.4,1.3h5.783a1.255,1.255,0,0,1,1.277,1.27v.814H7.122ZM2.485,4.688h17.61a1.172,1.172,0,1,1,0,2.345H2.485a1.172,1.172,0,1,1,0-2.345Zm0,0" transform="translate(0.003 0.002)"/></svg>