<svg xmlns="http://www.w3.org/2000/svg" width="18.929" height="18.929" viewBox="0 0 18.929 18.929"><defs><style>.a{fill:#f4f5f7;}</style></defs><g transform="translate(0 0)"><path class="a" d="M7.3,6.31H1.38A1.382,1.382,0,0,1,0,4.929V1.38A1.382,1.382,0,0,1,1.38,0H7.3a1.382,1.382,0,0,1,1.38,1.38V4.929A1.382,1.382,0,0,1,7.3,6.31ZM1.38,1.183a.2.2,0,0,0-.2.2V4.929a.2.2,0,0,0,.2.2H7.3a.2.2,0,0,0,.2-.2V1.38a.2.2,0,0,0-.2-.2Zm0,0"/><path class="a" d="M7.3,224.374H1.38A1.382,1.382,0,0,1,0,222.994v-8.281a1.382,1.382,0,0,1,1.38-1.38H7.3a1.382,1.382,0,0,1,1.38,1.38v8.281A1.382,1.382,0,0,1,7.3,224.374ZM1.38,214.515a.2.2,0,0,0-.2.2v8.281a.2.2,0,0,0,.2.2H7.3a.2.2,0,0,0,.2-.2v-8.281a.2.2,0,0,0-.2-.2Zm0,0" transform="translate(0 -205.445)"/><path class="a" d="M284.628,347.642h-5.915a1.382,1.382,0,0,1-1.38-1.38v-3.549a1.382,1.382,0,0,1,1.38-1.38h5.915a1.382,1.382,0,0,1,1.38,1.38v3.549A1.382,1.382,0,0,1,284.628,347.642Zm-5.915-5.126a.2.2,0,0,0-.2.2v3.549a.2.2,0,0,0,.2.2h5.915a.2.2,0,0,0,.2-.2v-3.549a.2.2,0,0,0-.2-.2Zm0,0" transform="translate(-267.079 -328.713)"/><path class="a" d="M284.628,11.042h-5.915a1.382,1.382,0,0,1-1.38-1.38V1.38A1.382,1.382,0,0,1,278.712,0h5.915a1.382,1.382,0,0,1,1.38,1.38V9.661A1.382,1.382,0,0,1,284.628,11.042Zm-5.915-9.859a.2.2,0,0,0-.2.2V9.661a.2.2,0,0,0,.2.2h5.915a.2.2,0,0,0,.2-.2V1.38a.2.2,0,0,0-.2-.2Zm0,0" transform="translate(-267.079)"/></g></svg>