<svg xmlns="http://www.w3.org/2000/svg" width="27.949" height="27.809" viewBox="0 0 27.949 27.809"><defs><style>.a{fill:rgba(20,97,162,0.45);}</style></defs><path class="a" d="M25.8,53.915a.7.7,0,0,0-.7.7v6.18a2.09,2.09,0,0,1-2.088,2.088H3.48a2.09,2.09,0,0,1-2.088-2.088V42.652A2.091,2.091,0,0,1,3.48,40.564h6.18a.7.7,0,0,0,0-1.392H3.48A3.484,3.484,0,0,0,0,42.652V60.792a3.484,3.484,0,0,0,3.48,3.48H23.012a3.484,3.484,0,0,0,3.48-3.48V54.611a.7.7,0,0,0-.7-.7Zm0,0" transform="translate(0 -36.464)"/><path class="a" d="M126.876,1.178a3.132,3.132,0,0,0-4.43,0L110.027,13.6a.7.7,0,0,0-.179.306l-1.633,5.9a.7.7,0,0,0,.857.857l5.9-1.633a.7.7,0,0,0,.306-.179L127.692,6.425a3.136,3.136,0,0,0,0-4.43ZM111.544,14.049,121.707,3.885l3.278,3.278L114.821,17.327Zm-.655,1.314,2.619,2.619-3.622,1Zm15.819-9.922-.738.738L122.692,2.9l.738-.738a1.74,1.74,0,0,1,2.461,0l.817.817A1.743,1.743,0,0,1,126.708,5.441Zm0,0" transform="translate(-100.659 -0.261)"/></svg>