<svg xmlns="http://www.w3.org/2000/svg" width="44.128" height="41.943" viewBox="0 0 44.128 41.943"><defs><style>.a{fill:#02324f;}</style></defs><g transform="translate(0 -12.676)"><g transform="translate(0 12.675)"><path class="a" d="M43.387,31.31l-19.8-18.041a2.253,2.253,0,0,0-3.048,0L.741,31.31a2.263,2.263,0,0,0,1.524,3.935H5.427V53.321a1.3,1.3,0,0,0,1.3,1.3H17.577a1.3,1.3,0,0,0,1.3-1.3V42.346h6.378V53.321a1.3,1.3,0,0,0,1.3,1.3H37.4a1.3,1.3,0,0,0,1.3-1.3V35.245h3.163a2.263,2.263,0,0,0,1.524-3.935Z" transform="translate(0 -12.676)"/></g><g transform="translate(29.646 15.266)"><g transform="translate(0 0)"><path class="a" d="M352.688,42.73h-8.715l10.013,9.1V44.028A1.3,1.3,0,0,0,352.688,42.73Z" transform="translate(-343.973 -42.73)"/></g></g></g></svg>