<svg xmlns="http://www.w3.org/2000/svg" width="32.46" height="32.46" viewBox="0 0 32.46 32.46"><defs><style>.a{fill:#043b5c;}</style></defs><path class="a" d="M84.775,26.121h-.706a18.329,18.329,0,0,1-2.147-8.6v-4.4a8.573,8.573,0,0,0-5.389-7.95v-2a3.17,3.17,0,0,0-6.34,0v2a8.573,8.573,0,0,0-5.389,7.95v4.4a18.329,18.329,0,0,1-2.147,8.6h-.706a.951.951,0,0,0,0,1.9H68.06a5.388,5.388,0,0,0,10.606,0h6.109a.951.951,0,0,0,0-1.9ZM72.095,3.17a1.268,1.268,0,0,1,2.536,0V4.659a8.592,8.592,0,0,0-2.536,0Zm-5.389,9.954a6.657,6.657,0,1,1,13.314,0v4.4a20.186,20.186,0,0,0,.434,4.16H66.272a20.186,20.186,0,0,0,.434-4.16Zm-.933,10.461H80.952a20.222,20.222,0,0,0,.989,2.536H64.784A20.208,20.208,0,0,0,65.773,23.585Zm7.59,6.974a3.492,3.492,0,0,1-3.354-2.536h6.708A3.492,3.492,0,0,1,73.363,30.558Z" transform="translate(-57.133 0)"/><path class="a" d="M457.3,177.639a.951.951,0,0,0-1.345,1.345,4.761,4.761,0,0,1,0,6.725.951.951,0,1,0,1.345,1.345,6.663,6.663,0,0,0,0-9.414Z" transform="translate(-426.791 -166.116)"/><path class="a" d="M413.532,220.065a.951.951,0,0,0,0,1.345.951.951,0,0,1,0,1.345.951.951,0,1,0,1.345,1.345,2.856,2.856,0,0,0,0-4.035A.951.951,0,0,0,413.532,220.065Z" transform="translate(-387.054 -205.852)"/><path class="a" d="M3.292,177.639a.951.951,0,0,0-1.345,0,6.663,6.663,0,0,0,0,9.414.951.951,0,0,0,1.345-1.345,4.761,4.761,0,0,1,0-6.725.951.951,0,0,0,0-1.345Z" transform="translate(0 -166.116)"/><path class="a" d="M61.486,224.377a.951.951,0,0,0,.672-1.623.951.951,0,0,1,0-1.345.951.951,0,0,0-1.345-1.345,2.856,2.856,0,0,0,0,4.035A.948.948,0,0,0,61.486,224.377Z" transform="translate(-56.177 -205.851)"/></svg>