<svg xmlns="http://www.w3.org/2000/svg" width="32" height="32" viewBox="0 0 32 32"><defs><style>.a{fill:#043b5c;}</style></defs><path class="a" d="M167.5,222.159a3.127,3.127,0,0,0,2.225-.922.937.937,0,0,0-1.326-1.326,1.271,1.271,0,0,1-1.8,0,.937.937,0,0,0-1.326,1.326A3.127,3.127,0,0,0,167.5,222.159Z" transform="translate(-154.687 -205.909)"/><path class="a" d="M31.673,24.19,25.735,19.1a.938.938,0,0,0-1.22,0l-2.679,2.3A8.466,8.466,0,0,0,17.187,20h-.312V18.738a7.2,7.2,0,0,0,3.064-4.988h.374a2.811,2.811,0,0,0,1.857-4.923,9.372,9.372,0,0,0-18.713,0A2.811,2.811,0,0,0,5.312,13.75h.374A7.2,7.2,0,0,0,8.75,18.738V20H8.437A8.447,8.447,0,0,0,0,28.438v2.625A.938.938,0,0,0,.937,32H29.5a.938.938,0,0,0,.937-.938V25.6l.015.013a.937.937,0,1,0,1.22-1.424ZM20.312,11.875H20V10h.313a.938.938,0,0,1,0,1.875Zm-7.5-10A7.522,7.522,0,0,1,20.2,8.125H16.858a3.566,3.566,0,0,1-3.207-1.982.937.937,0,0,0-1.677,0A3.566,3.566,0,0,1,8.767,8.125H5.42a7.522,7.522,0,0,1,7.392-6.25ZM4.375,10.938A.939.939,0,0,1,5.312,10h.313v1.875H5.312A.939.939,0,0,1,4.375,10.938ZM7.5,12.813V10H8.767a5.428,5.428,0,0,0,4.045-1.788A5.428,5.428,0,0,0,16.858,10h1.267v2.812a5.312,5.312,0,1,1-10.625,0ZM12.812,20A7.162,7.162,0,0,0,15,19.659v1.9a2.188,2.188,0,0,1-4.375,0v-1.9A7.16,7.16,0,0,0,12.812,20ZM1.875,28.438a6.57,6.57,0,0,1,6.563-6.562h.326a4.061,4.061,0,0,0,8.1,0h.326a6.49,6.49,0,0,1,3.152.8L18.577,24.19a.937.937,0,1,0,1.22,1.424l.015-.013v4.524H6.875V27.813a.938.938,0,1,0-1.875,0v2.313H1.875Zm26.687,1.688h-2.5V28.563a.937.937,0,1,0-1.875,0v1.563h-2.5V23.994l3.438-2.946,3.437,2.946Z" transform="translate(0 0)"/><path class="a" d="M377,382.938a.938.938,0,0,0,.937.938h1.25a.938.938,0,1,0,0-1.875h-1.25A.938.938,0,0,0,377,382.938Z" transform="translate(-353.438 -358.125)"/></svg>