<svg xmlns="http://www.w3.org/2000/svg" width="29.984" height="27.849" viewBox="0 0 29.984 27.849"><defs><style>.a{fill:#ddeafb;}.b{fill:#cbe2ff;}.c{fill:#043b5c;}.d{fill:#02324f;}.e{fill:#ecf4ff;}</style></defs><g transform="translate(0 -18.227)"><g transform="translate(0 18.227)"><g transform="translate(0 1.249)"><path class="a" d="M6.4,43.816a.53.53,0,0,1-.541-.541A.53.53,0,0,0,5.7,42.89L2.54,39.727a.583.583,0,0,0-.825,0L.171,41.271a.583.583,0,0,0,0,.825l3.163,3.163a.53.53,0,0,0,.386.155.53.53,0,0,1,.541.541.53.53,0,0,0,.155.386L17.253,59.178l2.369-2.369L6.784,43.971a.53.53,0,0,0-.386-.155Z" transform="translate(0 -39.556)"/><g transform="translate(0.829)"><path class="b" d="M20.11,43.971a.53.53,0,0,0-.386-.155.53.53,0,0,1-.541-.541.53.53,0,0,0-.155-.386l-3.163-3.163a.583.583,0,0,0-.825,0l-.886.886a.583.583,0,0,1,.825,0l3.163,3.163a.53.53,0,0,1,.155.386.53.53,0,0,0,.541.541.53.53,0,0,1,.386.155L32.062,57.695l.886-.886Z" transform="translate(-14.155 -39.556)"/></g><g transform="translate(16.042 16.042)"><path class="c" d="M274.182,317.681l4.035,4.035a7.924,7.924,0,0,0,3.689,2.086l.466.116a.848.848,0,0,0,.8-.223l.962-.962a.848.848,0,0,0,.223-.8l-.116-.467a7.923,7.923,0,0,0-2.086-3.689l-4.035-4.035a.875.875,0,0,0-1.238,0l-2.7,2.7A.875.875,0,0,0,274.182,317.681Z" transform="translate(-273.926 -313.483)"/></g><g transform="translate(17.582 16.042)"><path class="d" d="M309.124,321.929l-.116-.467a7.923,7.923,0,0,0-2.086-3.689l-4.035-4.035a.875.875,0,0,0-1.238,0l-1.421,1.421a.875.875,0,0,1,1.238,0l4.035,4.035a7.924,7.924,0,0,1,2.086,3.689l.116.467a.848.848,0,0,1-.039.529.848.848,0,0,0,.275-.184l.962-.962A.847.847,0,0,0,309.124,321.929Z" transform="translate(-300.228 -313.482)"/></g></g><g transform="translate(2.135 0)"><path class="e" d="M64.068,23.007a.278.278,0,0,0-.465-.125L60.05,26.435a.834.834,0,0,1-1.179,0l-2.778-2.778a.834.834,0,0,1,0-1.179l3.553-3.553a.278.278,0,0,0-.125-.465,6.512,6.512,0,0,0-7.92,8.3.276.276,0,0,1-.068.28l-10.1,10.095a1.721,1.721,0,0,0-.285.377L40.4,38.86a1.722,1.722,0,0,1-1.133.842l-.015,0a1.722,1.722,0,0,0-.848.464l-1.787,1.787a.556.556,0,0,0,0,.786l3.171,3.171a.556.556,0,0,0,.786,0l1.8-1.8a1.722,1.722,0,0,0,.464-.848,1.722,1.722,0,0,1,.842-1.133L45,41.4a1.723,1.723,0,0,0,.377-.285L55.489,31a.276.276,0,0,1,.28-.068,6.513,6.513,0,0,0,8.3-7.92Z" transform="translate(-36.452 -18.227)"/><g transform="translate(2.409 4.574)"><path class="a" d="M102.8,96.536a.278.278,0,0,0-.465-.125l-.025.025a6.511,6.511,0,0,1-8.53,6.107.276.276,0,0,0-.28.068L83.378,112.726a1.721,1.721,0,0,1-.377.285l-1.322.739a1.722,1.722,0,0,0-.842,1.133,1.722,1.722,0,0,1-.464.848l-2.785,2.785.925.925a.556.556,0,0,0,.786,0l1.8-1.8a1.722,1.722,0,0,0,.464-.848,1.722,1.722,0,0,1,.842-1.133l1.322-.739a1.723,1.723,0,0,0,.377-.285l10.116-10.116a.276.276,0,0,1,.28-.068,6.513,6.513,0,0,0,8.3-7.92Z" transform="translate(-77.588 -96.329)"/></g></g></g></g></svg>