<svg xmlns="http://www.w3.org/2000/svg" width="38.835" height="46.548" viewBox="0 0 38.835 46.548"><defs><style>.a{fill:#043b5c;}</style></defs><g transform="translate(0 0)"><path class="a" d="M98.243,22.422a10.848,10.848,0,0,0,7.927-3.285,10.847,10.847,0,0,0,3.284-7.927,10.849,10.849,0,0,0-3.285-7.927,11.209,11.209,0,0,0-15.854,0,10.848,10.848,0,0,0-3.285,7.926,10.848,10.848,0,0,0,3.285,7.927A10.85,10.85,0,0,0,98.243,22.422Zm0,0" transform="translate(-79.12 0)"/><path class="a" d="M38.74,260.625a27.692,27.692,0,0,0-.377-2.941,23.173,23.173,0,0,0-.723-2.957,14.607,14.607,0,0,0-1.216-2.758,10.406,10.406,0,0,0-1.833-2.389,8.082,8.082,0,0,0-2.633-1.655,9.1,9.1,0,0,0-3.362-.608,3.412,3.412,0,0,0-1.822.773c-.546.356-1.185.768-1.9,1.224A10.876,10.876,0,0,1,22.42,250.4a9.537,9.537,0,0,1-6.008,0,10.852,10.852,0,0,1-2.454-1.082c-.706-.451-1.346-.863-1.9-1.224a3.407,3.407,0,0,0-1.821-.773,9.089,9.089,0,0,0-3.361.609,8.076,8.076,0,0,0-2.634,1.655,10.409,10.409,0,0,0-1.832,2.389,14.634,14.634,0,0,0-1.216,2.758,23.229,23.229,0,0,0-.723,2.957,27.594,27.594,0,0,0-.377,2.942c-.062.891-.093,1.815-.093,2.749a7.729,7.729,0,0,0,2.3,5.848,8.264,8.264,0,0,0,5.915,2.158H30.624a8.262,8.262,0,0,0,5.915-2.158,7.726,7.726,0,0,0,2.3-5.848c0-.938-.032-1.863-.094-2.749Zm0,0" transform="translate(0 -224.832)"/></g></svg>